<svg width="181" height="70" viewBox="0 0 181 70" fill="none" xmlns="http://www.w3.org/2000/svg">
<g filter="url(#filter0_d_6_1636)">
<rect x="6" y="4" width="165" height="54" rx="4" fill="#043953"/>
<path d="M33.6504 34.9072C33.6504 34.6279 33.6074 34.3773 33.5215 34.1553C33.4427 33.9261 33.2923 33.7184 33.0703 33.5322C32.8483 33.3389 32.5368 33.1491 32.1357 32.9629C31.7347 32.7767 31.2155 32.5833 30.5781 32.3828C29.8691 32.1536 29.196 31.8958 28.5586 31.6094C27.9284 31.3229 27.3698 30.9899 26.8828 30.6104C26.403 30.2236 26.0234 29.776 25.7441 29.2676C25.472 28.7591 25.3359 28.1683 25.3359 27.4951C25.3359 26.8434 25.4792 26.2526 25.7656 25.7227C26.0521 25.1855 26.4531 24.7272 26.9688 24.3477C27.4844 23.9609 28.0931 23.6637 28.7949 23.4561C29.5039 23.2484 30.2809 23.1445 31.126 23.1445C32.279 23.1445 33.2852 23.3522 34.1445 23.7676C35.0039 24.1829 35.6699 24.7523 36.1426 25.4756C36.6224 26.1989 36.8623 27.026 36.8623 27.957H33.6611C33.6611 27.4987 33.5645 27.0977 33.3711 26.7539C33.1849 26.403 32.8984 26.1273 32.5117 25.9268C32.1322 25.7262 31.6523 25.626 31.0723 25.626C30.5137 25.626 30.0482 25.7119 29.6758 25.8838C29.3034 26.0485 29.0241 26.2741 28.8379 26.5605C28.6517 26.8398 28.5586 27.1549 28.5586 27.5059C28.5586 27.7708 28.623 28.0107 28.752 28.2256C28.888 28.4404 29.0885 28.641 29.3535 28.8271C29.6185 29.0133 29.9443 29.1888 30.3311 29.3535C30.7178 29.5182 31.1654 29.6794 31.6738 29.8369C32.526 30.0947 33.2744 30.3848 33.9189 30.707C34.5706 31.0293 35.1149 31.391 35.5518 31.792C35.9886 32.193 36.318 32.6478 36.54 33.1562C36.762 33.6647 36.873 34.2412 36.873 34.8857C36.873 35.5661 36.7406 36.1748 36.4756 36.7119C36.2106 37.249 35.8275 37.7038 35.3262 38.0762C34.8249 38.4486 34.2269 38.7314 33.5322 38.9248C32.8376 39.1182 32.0605 39.2148 31.2012 39.2148C30.4277 39.2148 29.665 39.1146 28.9131 38.9141C28.1611 38.7064 27.4772 38.3949 26.8613 37.9795C26.2526 37.5641 25.7656 37.0342 25.4004 36.3896C25.0352 35.7451 24.8525 34.9824 24.8525 34.1016H28.0859C28.0859 34.5885 28.1611 35.0003 28.3115 35.3369C28.4619 35.6735 28.6732 35.9456 28.9453 36.1533C29.2246 36.361 29.554 36.5114 29.9336 36.6045C30.3203 36.6976 30.7428 36.7441 31.2012 36.7441C31.7598 36.7441 32.2181 36.6654 32.5762 36.5078C32.9414 36.3503 33.21 36.1318 33.3818 35.8525C33.5609 35.5732 33.6504 35.2581 33.6504 34.9072ZM42.1367 22.5V39H39.0322V22.5H42.1367ZM47.959 27.377V39H44.8545V27.377H47.959ZM44.6611 24.3477C44.6611 23.8965 44.8187 23.5241 45.1338 23.2305C45.4489 22.9368 45.8714 22.79 46.4014 22.79C46.9242 22.79 47.3431 22.9368 47.6582 23.2305C47.9805 23.5241 48.1416 23.8965 48.1416 24.3477C48.1416 24.7988 47.9805 25.1712 47.6582 25.4648C47.3431 25.7585 46.9242 25.9053 46.4014 25.9053C45.8714 25.9053 45.4489 25.7585 45.1338 25.4648C44.8187 25.1712 44.6611 24.7988 44.6611 24.3477ZM57.3799 36.4648V22.5H60.4951V39H57.6914L57.3799 36.4648ZM50.0322 33.3281V33.1025C50.0322 32.2145 50.1325 31.4089 50.333 30.6855C50.5335 29.9551 50.8271 29.3285 51.2139 28.8057C51.6006 28.2829 52.0768 27.8783 52.6426 27.5918C53.2083 27.3053 53.8529 27.1621 54.5762 27.1621C55.2565 27.1621 55.8509 27.3053 56.3594 27.5918C56.875 27.8783 57.3118 28.2865 57.6699 28.8164C58.0352 29.3392 58.3288 29.9587 58.5508 30.6748C58.7728 31.3838 58.9339 32.1608 59.0342 33.0059V33.5C58.9339 34.3092 58.7728 35.0612 58.5508 35.7559C58.3288 36.4505 58.0352 37.0592 57.6699 37.582C57.3118 38.0977 56.875 38.4987 56.3594 38.7852C55.8438 39.0716 55.2422 39.2148 54.5547 39.2148C53.8314 39.2148 53.1868 39.068 52.6211 38.7744C52.0625 38.4808 51.5898 38.069 51.2031 37.5391C50.8236 37.0091 50.5335 36.3861 50.333 35.6699C50.1325 34.9538 50.0322 34.1732 50.0322 33.3281ZM53.126 33.1025V33.3281C53.126 33.8079 53.1618 34.2555 53.2334 34.6709C53.3122 35.0863 53.4375 35.4551 53.6094 35.7773C53.7884 36.0924 54.0176 36.3395 54.2969 36.5186C54.5833 36.6904 54.9307 36.7764 55.3389 36.7764C55.8688 36.7764 56.3057 36.6582 56.6494 36.4219C56.9932 36.1784 57.2546 35.8454 57.4336 35.4229C57.6198 35.0003 57.7272 34.5133 57.7559 33.9619V32.5547C57.7344 32.1035 57.6699 31.6989 57.5625 31.3408C57.4622 30.9756 57.3118 30.6641 57.1113 30.4062C56.918 30.1484 56.6745 29.9479 56.3809 29.8047C56.0944 29.6615 55.7542 29.5898 55.3604 29.5898C54.9593 29.5898 54.6156 29.6829 54.3291 29.8691C54.0426 30.0482 53.8099 30.2952 53.6309 30.6104C53.459 30.9255 53.3301 31.2979 53.2441 31.7275C53.1654 32.1501 53.126 32.6084 53.126 33.1025ZM68.2617 39.2148C67.3594 39.2148 66.5501 39.0716 65.834 38.7852C65.1178 38.4915 64.5091 38.0869 64.0078 37.5713C63.5137 37.0557 63.1341 36.4577 62.8691 35.7773C62.6042 35.0898 62.4717 34.3594 62.4717 33.5859V33.1562C62.4717 32.2754 62.597 31.4697 62.8477 30.7393C63.0983 30.0088 63.4564 29.375 63.9219 28.8379C64.3945 28.3008 64.9674 27.889 65.6406 27.6025C66.3138 27.3089 67.0729 27.1621 67.918 27.1621C68.7415 27.1621 69.472 27.2982 70.1094 27.5703C70.7467 27.8424 71.2803 28.2292 71.71 28.7305C72.1468 29.2318 72.4762 29.8333 72.6982 30.5352C72.9202 31.2298 73.0312 32.0033 73.0312 32.8555V34.1445H63.793V32.082H69.9912V31.8457C69.9912 31.416 69.9124 31.0329 69.7549 30.6963C69.6045 30.3525 69.3753 30.0804 69.0674 29.8799C68.7594 29.6794 68.3656 29.5791 67.8857 29.5791C67.4775 29.5791 67.1266 29.6686 66.833 29.8477C66.5394 30.0267 66.2995 30.2773 66.1133 30.5996C65.9342 30.9219 65.7982 31.3014 65.7051 31.7383C65.6191 32.168 65.5762 32.6406 65.5762 33.1562V33.5859C65.5762 34.0514 65.6406 34.4811 65.7695 34.875C65.9056 35.2689 66.0954 35.609 66.3389 35.8955C66.5895 36.182 66.8903 36.404 67.2412 36.5615C67.5993 36.7191 68.0039 36.7979 68.4551 36.7979C69.0137 36.7979 69.5329 36.6904 70.0127 36.4756C70.4997 36.2536 70.9186 35.9206 71.2695 35.4766L72.7734 37.1094C72.5299 37.4603 72.1969 37.7969 71.7744 38.1191C71.359 38.4414 70.8577 38.7064 70.2705 38.9141C69.6833 39.1146 69.0137 39.2148 68.2617 39.2148ZM77.8867 29.9121V39H74.793V27.377H77.7041L77.8867 29.9121ZM81.3887 27.3018L81.335 30.1699C81.1846 30.1484 81.002 30.1305 80.7871 30.1162C80.5794 30.0947 80.3896 30.084 80.2178 30.084C79.7809 30.084 79.4014 30.1413 79.0791 30.2559C78.764 30.3633 78.499 30.5244 78.2842 30.7393C78.0765 30.9541 77.9189 31.2155 77.8115 31.5234C77.7113 31.8314 77.654 32.1823 77.6396 32.5762L77.0166 32.3828C77.0166 31.6309 77.0918 30.9398 77.2422 30.3096C77.3926 29.6722 77.611 29.1172 77.8975 28.6445C78.1911 28.1719 78.5492 27.8066 78.9717 27.5488C79.3942 27.291 79.8776 27.1621 80.4219 27.1621C80.5938 27.1621 80.7692 27.1764 80.9482 27.2051C81.1273 27.2266 81.2741 27.2588 81.3887 27.3018ZM94.6445 32.1357H90.627L90.6055 29.9229H93.9785C94.5729 29.9229 95.0599 29.8477 95.4395 29.6973C95.819 29.5397 96.1019 29.3141 96.2881 29.0205C96.4814 28.7197 96.5781 28.3545 96.5781 27.9248C96.5781 27.4378 96.485 27.0439 96.2988 26.7432C96.1198 26.4424 95.8369 26.224 95.4502 26.0879C95.0706 25.9518 94.5801 25.8838 93.9785 25.8838H91.7441V39H88.5215V23.3594H93.9785C94.888 23.3594 95.7008 23.4453 96.417 23.6172C97.1403 23.7891 97.7526 24.0505 98.2539 24.4014C98.7552 24.7523 99.1383 25.1963 99.4033 25.7334C99.6683 26.2633 99.8008 26.8936 99.8008 27.624C99.8008 28.2686 99.654 28.863 99.3604 29.4072C99.0739 29.9515 98.6191 30.3955 97.9961 30.7393C97.3802 31.083 96.5745 31.2728 95.5791 31.3086L94.6445 32.1357ZM94.5049 39H89.7461L91.0029 36.4863H94.5049C95.0706 36.4863 95.5326 36.3968 95.8906 36.2178C96.2487 36.0316 96.5137 35.7809 96.6855 35.4658C96.8574 35.1507 96.9434 34.7891 96.9434 34.3809C96.9434 33.9225 96.8646 33.5251 96.707 33.1885C96.5566 32.8519 96.3132 32.5941 95.9766 32.415C95.64 32.2288 95.196 32.1357 94.6445 32.1357H91.54L91.5615 29.9229H95.4287L96.1699 30.793C97.1224 30.7786 97.8887 30.9469 98.4688 31.2979C99.056 31.6416 99.4821 32.0892 99.7471 32.6406C100.019 33.1921 100.155 33.7829 100.155 34.4131C100.155 35.4157 99.9368 36.2607 99.5 36.9482C99.0632 37.6286 98.4222 38.1406 97.5771 38.4844C96.7393 38.8281 95.7152 39 94.5049 39ZM109.254 36.2178V27.377H112.348V39H109.437L109.254 36.2178ZM109.598 33.833L110.511 33.8115C110.511 34.585 110.421 35.3047 110.242 35.9707C110.063 36.6296 109.795 37.2025 109.437 37.6895C109.078 38.1693 108.627 38.5452 108.083 38.8174C107.539 39.0824 106.898 39.2148 106.16 39.2148C105.594 39.2148 105.072 39.1361 104.592 38.9785C104.119 38.8138 103.711 38.5596 103.367 38.2158C103.031 37.8649 102.766 37.4173 102.572 36.873C102.386 36.3216 102.293 35.6592 102.293 34.8857V27.377H105.387V34.9072C105.387 35.251 105.426 35.541 105.505 35.7773C105.591 36.0137 105.709 36.207 105.859 36.3574C106.01 36.5078 106.185 36.6152 106.386 36.6797C106.593 36.7441 106.823 36.7764 107.073 36.7764C107.711 36.7764 108.212 36.6475 108.577 36.3896C108.95 36.1318 109.211 35.7809 109.361 35.3369C109.519 34.8857 109.598 34.3844 109.598 33.833ZM120.404 27.377V29.5684H113.637V27.377H120.404ZM115.312 24.5088H118.406V35.498C118.406 35.8346 118.449 36.0924 118.535 36.2715C118.628 36.4505 118.764 36.5758 118.943 36.6475C119.122 36.7119 119.348 36.7441 119.62 36.7441C119.813 36.7441 119.985 36.737 120.136 36.7227C120.293 36.7012 120.426 36.6797 120.533 36.6582L120.544 38.9355C120.279 39.0215 119.993 39.0895 119.685 39.1396C119.377 39.1898 119.036 39.2148 118.664 39.2148C117.984 39.2148 117.389 39.1038 116.881 38.8818C116.38 38.6527 115.993 38.2874 115.721 37.7861C115.449 37.2848 115.312 36.626 115.312 35.8096V24.5088ZM127.859 27.377V29.5684H121.092V27.377H127.859ZM122.768 24.5088H125.861V35.498C125.861 35.8346 125.904 36.0924 125.99 36.2715C126.083 36.4505 126.219 36.5758 126.398 36.6475C126.577 36.7119 126.803 36.7441 127.075 36.7441C127.269 36.7441 127.44 36.737 127.591 36.7227C127.748 36.7012 127.881 36.6797 127.988 36.6582L127.999 38.9355C127.734 39.0215 127.448 39.0895 127.14 39.1396C126.832 39.1898 126.492 39.2148 126.119 39.2148C125.439 39.2148 124.844 39.1038 124.336 38.8818C123.835 38.6527 123.448 38.2874 123.176 37.7861C122.904 37.2848 122.768 36.626 122.768 35.8096V24.5088ZM128.848 33.3066V33.0811C128.848 32.2288 128.969 31.4447 129.213 30.7285C129.456 30.0052 129.811 29.3786 130.276 28.8486C130.742 28.3187 131.315 27.9069 131.995 27.6133C132.675 27.3125 133.456 27.1621 134.337 27.1621C135.218 27.1621 136.002 27.3125 136.689 27.6133C137.377 27.9069 137.953 28.3187 138.419 28.8486C138.892 29.3786 139.25 30.0052 139.493 30.7285C139.737 31.4447 139.858 32.2288 139.858 33.0811V33.3066C139.858 34.1517 139.737 34.9359 139.493 35.6592C139.25 36.3753 138.892 37.002 138.419 37.5391C137.953 38.069 137.381 38.4808 136.7 38.7744C136.02 39.068 135.239 39.2148 134.358 39.2148C133.478 39.2148 132.693 39.068 132.006 38.7744C131.326 38.4808 130.749 38.069 130.276 37.5391C129.811 37.002 129.456 36.3753 129.213 35.6592C128.969 34.9359 128.848 34.1517 128.848 33.3066ZM131.941 33.0811V33.3066C131.941 33.7936 131.984 34.2484 132.07 34.6709C132.156 35.0934 132.292 35.4658 132.479 35.7881C132.672 36.1032 132.923 36.3503 133.23 36.5293C133.538 36.7083 133.914 36.7979 134.358 36.7979C134.788 36.7979 135.157 36.7083 135.465 36.5293C135.773 36.3503 136.02 36.1032 136.206 35.7881C136.392 35.4658 136.528 35.0934 136.614 34.6709C136.707 34.2484 136.754 33.7936 136.754 33.3066V33.0811C136.754 32.6084 136.707 32.1644 136.614 31.749C136.528 31.3265 136.389 30.9541 136.195 30.6318C136.009 30.3024 135.762 30.0446 135.454 29.8584C135.146 29.6722 134.774 29.5791 134.337 29.5791C133.9 29.5791 133.528 29.6722 133.22 29.8584C132.919 30.0446 132.672 30.3024 132.479 30.6318C132.292 30.9541 132.156 31.3265 132.07 31.749C131.984 32.1644 131.941 32.6084 131.941 33.0811ZM144.789 29.8584V39H141.695V27.377H144.596L144.789 29.8584ZM144.338 32.7803H143.5C143.5 31.9209 143.611 31.1475 143.833 30.46C144.055 29.7653 144.367 29.1745 144.768 28.6875C145.169 28.1934 145.645 27.8174 146.196 27.5596C146.755 27.2946 147.378 27.1621 148.065 27.1621C148.61 27.1621 149.107 27.2409 149.559 27.3984C150.01 27.556 150.396 27.8066 150.719 28.1504C151.048 28.4941 151.299 28.9489 151.471 29.5146C151.65 30.0804 151.739 30.7715 151.739 31.5879V39H148.624V31.5771C148.624 31.0615 148.552 30.6605 148.409 30.374C148.266 30.0876 148.055 29.887 147.775 29.7725C147.503 29.6507 147.167 29.5898 146.766 29.5898C146.35 29.5898 145.989 29.6722 145.681 29.8369C145.38 30.0016 145.129 30.2308 144.929 30.5244C144.735 30.8109 144.589 31.1475 144.488 31.5342C144.388 31.9209 144.338 32.3363 144.338 32.7803Z" fill="white"/>
</g>
<defs>
<filter id="filter0_d_6_1636" x="0" y="0" width="181" height="70" filterUnits="userSpaceOnUse" color-interpolation-filters="sRGB">
<feFlood flood-opacity="0" result="BackgroundImageFix"/>
<feColorMatrix in="SourceAlpha" type="matrix" values="0 0 0 0 0 0 0 0 0 0 0 0 0 0 0 0 0 0 127 0" result="hardAlpha"/>
<feOffset dx="2" dy="4"/>
<feGaussianBlur stdDeviation="4"/>
<feColorMatrix type="matrix" values="0 0 0 0 0 0 0 0 0 0 0 0 0 0 0 0 0 0 0.08 0"/>
<feBlend mode="normal" in2="BackgroundImageFix" result="effect1_dropShadow_6_1636"/>
<feBlend mode="normal" in="SourceGraphic" in2="effect1_dropShadow_6_1636" result="shape"/>
</filter>
</defs>
</svg>
